<mxfile host="app.diagrams.net" agent="Mozilla/5.0 (Windows NT 10.0; Win64; x64) AppleWebKit/537.36 (KHTML, like Gecko) Chrome/131.0.0.0 Safari/537.36" version="24.9.3">
  <diagram id="C5RBs43oDa-KdzZeNtuy" name="Page-1">
    <mxGraphModel dx="1590" dy="2169" grid="1" gridSize="10" guides="1" tooltips="1" connect="1" arrows="1" fold="1" page="1" pageScale="1" pageWidth="827" pageHeight="1169" math="0" shadow="0">
      <root>
        <mxCell id="WIyWlLk6GJQsqaUBKTNV-0" />
        <mxCell id="WIyWlLk6GJQsqaUBKTNV-1" parent="WIyWlLk6GJQsqaUBKTNV-0" />
        <mxCell id="_R9ojxDaMG_nAXajCXDd-2" value="" style="edgeStyle=orthogonalEdgeStyle;rounded=0;orthogonalLoop=1;jettySize=auto;html=1;" edge="1" parent="WIyWlLk6GJQsqaUBKTNV-1" source="_R9ojxDaMG_nAXajCXDd-0" target="_R9ojxDaMG_nAXajCXDd-1">
          <mxGeometry relative="1" as="geometry" />
        </mxCell>
        <mxCell id="_R9ojxDaMG_nAXajCXDd-0" value="начало" style="strokeWidth=2;html=1;shape=mxgraph.flowchart.start_2;whiteSpace=wrap;" vertex="1" parent="WIyWlLk6GJQsqaUBKTNV-1">
          <mxGeometry x="320" width="160" height="80" as="geometry" />
        </mxCell>
        <mxCell id="_R9ojxDaMG_nAXajCXDd-4" value="" style="edgeStyle=orthogonalEdgeStyle;rounded=0;orthogonalLoop=1;jettySize=auto;html=1;" edge="1" parent="WIyWlLk6GJQsqaUBKTNV-1" source="_R9ojxDaMG_nAXajCXDd-1" target="_R9ojxDaMG_nAXajCXDd-3">
          <mxGeometry relative="1" as="geometry" />
        </mxCell>
        <mxCell id="_R9ojxDaMG_nAXajCXDd-1" value="ввод х1" style="shape=parallelogram;html=1;strokeWidth=2;perimeter=parallelogramPerimeter;whiteSpace=wrap;rounded=1;arcSize=12;size=0.23;" vertex="1" parent="WIyWlLk6GJQsqaUBKTNV-1">
          <mxGeometry x="320" y="120" width="160" height="60" as="geometry" />
        </mxCell>
        <mxCell id="_R9ojxDaMG_nAXajCXDd-6" value="" style="edgeStyle=orthogonalEdgeStyle;rounded=0;orthogonalLoop=1;jettySize=auto;html=1;" edge="1" parent="WIyWlLk6GJQsqaUBKTNV-1" source="_R9ojxDaMG_nAXajCXDd-3" target="_R9ojxDaMG_nAXajCXDd-5">
          <mxGeometry relative="1" as="geometry" />
        </mxCell>
        <mxCell id="_R9ojxDaMG_nAXajCXDd-3" value="ввод y1" style="shape=parallelogram;html=1;strokeWidth=2;perimeter=parallelogramPerimeter;whiteSpace=wrap;rounded=1;arcSize=12;size=0.23;" vertex="1" parent="WIyWlLk6GJQsqaUBKTNV-1">
          <mxGeometry x="320" y="220" width="160" height="60" as="geometry" />
        </mxCell>
        <mxCell id="_R9ojxDaMG_nAXajCXDd-8" value="" style="edgeStyle=orthogonalEdgeStyle;rounded=0;orthogonalLoop=1;jettySize=auto;html=1;" edge="1" parent="WIyWlLk6GJQsqaUBKTNV-1" source="_R9ojxDaMG_nAXajCXDd-5" target="_R9ojxDaMG_nAXajCXDd-7">
          <mxGeometry relative="1" as="geometry" />
        </mxCell>
        <mxCell id="_R9ojxDaMG_nAXajCXDd-5" value="ввод y2" style="shape=parallelogram;html=1;strokeWidth=2;perimeter=parallelogramPerimeter;whiteSpace=wrap;rounded=1;arcSize=12;size=0.23;" vertex="1" parent="WIyWlLk6GJQsqaUBKTNV-1">
          <mxGeometry x="320" y="320" width="160" height="60" as="geometry" />
        </mxCell>
        <mxCell id="_R9ojxDaMG_nAXajCXDd-12" style="edgeStyle=orthogonalEdgeStyle;rounded=0;orthogonalLoop=1;jettySize=auto;html=1;entryX=0.5;entryY=0;entryDx=0;entryDy=0;entryPerimeter=0;" edge="1" parent="WIyWlLk6GJQsqaUBKTNV-1" source="_R9ojxDaMG_nAXajCXDd-7" target="_R9ojxDaMG_nAXajCXDd-9">
          <mxGeometry relative="1" as="geometry">
            <mxPoint x="240" y="520" as="targetPoint" />
            <Array as="points">
              <mxPoint x="230" y="450" />
            </Array>
          </mxGeometry>
        </mxCell>
        <mxCell id="_R9ojxDaMG_nAXajCXDd-13" value="нет" style="edgeLabel;html=1;align=center;verticalAlign=middle;resizable=0;points=[];" vertex="1" connectable="0" parent="_R9ojxDaMG_nAXajCXDd-12">
          <mxGeometry x="-0.4537" y="-1" relative="1" as="geometry">
            <mxPoint as="offset" />
          </mxGeometry>
        </mxCell>
        <mxCell id="_R9ojxDaMG_nAXajCXDd-7" value="x1 &amp;lt; y1" style="strokeWidth=2;html=1;shape=mxgraph.flowchart.decision;whiteSpace=wrap;" vertex="1" parent="WIyWlLk6GJQsqaUBKTNV-1">
          <mxGeometry x="320" y="420" width="160" height="60" as="geometry" />
        </mxCell>
        <mxCell id="_R9ojxDaMG_nAXajCXDd-23" style="edgeStyle=orthogonalEdgeStyle;rounded=0;orthogonalLoop=1;jettySize=auto;html=1;entryX=0.5;entryY=0;entryDx=0;entryDy=0;" edge="1" parent="WIyWlLk6GJQsqaUBKTNV-1" source="_R9ojxDaMG_nAXajCXDd-9" target="_R9ojxDaMG_nAXajCXDd-17">
          <mxGeometry relative="1" as="geometry">
            <Array as="points">
              <mxPoint x="333" y="550" />
            </Array>
          </mxGeometry>
        </mxCell>
        <mxCell id="_R9ojxDaMG_nAXajCXDd-67" value="да" style="edgeLabel;html=1;align=center;verticalAlign=middle;resizable=0;points=[];" vertex="1" connectable="0" parent="_R9ojxDaMG_nAXajCXDd-23">
          <mxGeometry x="0.2481" relative="1" as="geometry">
            <mxPoint as="offset" />
          </mxGeometry>
        </mxCell>
        <mxCell id="_R9ojxDaMG_nAXajCXDd-25" style="edgeStyle=orthogonalEdgeStyle;rounded=0;orthogonalLoop=1;jettySize=auto;html=1;entryX=0.472;entryY=0;entryDx=0;entryDy=0;entryPerimeter=0;" edge="1" parent="WIyWlLk6GJQsqaUBKTNV-1" source="_R9ojxDaMG_nAXajCXDd-9" target="_R9ojxDaMG_nAXajCXDd-16">
          <mxGeometry relative="1" as="geometry">
            <mxPoint x="120" y="590" as="targetPoint" />
            <Array as="points">
              <mxPoint x="120" y="550" />
            </Array>
          </mxGeometry>
        </mxCell>
        <mxCell id="_R9ojxDaMG_nAXajCXDd-66" value="нет" style="edgeLabel;html=1;align=center;verticalAlign=middle;resizable=0;points=[];" vertex="1" connectable="0" parent="_R9ojxDaMG_nAXajCXDd-25">
          <mxGeometry x="0.3528" relative="1" as="geometry">
            <mxPoint as="offset" />
          </mxGeometry>
        </mxCell>
        <mxCell id="_R9ojxDaMG_nAXajCXDd-9" value="y1 &amp;lt; y2" style="strokeWidth=2;html=1;shape=mxgraph.flowchart.decision;whiteSpace=wrap;" vertex="1" parent="WIyWlLk6GJQsqaUBKTNV-1">
          <mxGeometry x="150" y="520" width="160" height="60" as="geometry" />
        </mxCell>
        <mxCell id="_R9ojxDaMG_nAXajCXDd-11" style="edgeStyle=orthogonalEdgeStyle;rounded=0;orthogonalLoop=1;jettySize=auto;html=1;entryX=0.5;entryY=0;entryDx=0;entryDy=0;entryPerimeter=0;" edge="1" parent="WIyWlLk6GJQsqaUBKTNV-1" source="_R9ojxDaMG_nAXajCXDd-7" target="_R9ojxDaMG_nAXajCXDd-15">
          <mxGeometry relative="1" as="geometry">
            <mxPoint x="560" y="540" as="targetPoint" />
            <Array as="points">
              <mxPoint x="574" y="450" />
            </Array>
          </mxGeometry>
        </mxCell>
        <mxCell id="_R9ojxDaMG_nAXajCXDd-14" value="да" style="edgeLabel;html=1;align=center;verticalAlign=middle;resizable=0;points=[];" vertex="1" connectable="0" parent="_R9ojxDaMG_nAXajCXDd-11">
          <mxGeometry x="-0.5253" y="-1" relative="1" as="geometry">
            <mxPoint y="-2" as="offset" />
          </mxGeometry>
        </mxCell>
        <mxCell id="_R9ojxDaMG_nAXajCXDd-22" style="edgeStyle=orthogonalEdgeStyle;rounded=0;orthogonalLoop=1;jettySize=auto;html=1;entryX=0.5;entryY=0;entryDx=0;entryDy=0;" edge="1" parent="WIyWlLk6GJQsqaUBKTNV-1" target="_R9ojxDaMG_nAXajCXDd-19">
          <mxGeometry relative="1" as="geometry">
            <mxPoint x="654" y="550" as="sourcePoint" />
            <mxPoint x="747" y="570" as="targetPoint" />
            <Array as="points">
              <mxPoint x="673" y="550" />
            </Array>
          </mxGeometry>
        </mxCell>
        <mxCell id="_R9ojxDaMG_nAXajCXDd-69" value="да" style="edgeLabel;html=1;align=center;verticalAlign=middle;resizable=0;points=[];" vertex="1" connectable="0" parent="_R9ojxDaMG_nAXajCXDd-22">
          <mxGeometry x="0.2367" y="1" relative="1" as="geometry">
            <mxPoint as="offset" />
          </mxGeometry>
        </mxCell>
        <mxCell id="_R9ojxDaMG_nAXajCXDd-15" value="x1 &amp;lt; y2" style="strokeWidth=2;html=1;shape=mxgraph.flowchart.decision;whiteSpace=wrap;" vertex="1" parent="WIyWlLk6GJQsqaUBKTNV-1">
          <mxGeometry x="494" y="520" width="160" height="60" as="geometry" />
        </mxCell>
        <mxCell id="_R9ojxDaMG_nAXajCXDd-60" style="edgeStyle=orthogonalEdgeStyle;rounded=0;orthogonalLoop=1;jettySize=auto;html=1;entryX=0.5;entryY=0;entryDx=0;entryDy=0;" edge="1" parent="WIyWlLk6GJQsqaUBKTNV-1" source="_R9ojxDaMG_nAXajCXDd-16" target="_R9ojxDaMG_nAXajCXDd-58">
          <mxGeometry relative="1" as="geometry">
            <Array as="points">
              <mxPoint x="123" y="670" />
              <mxPoint x="400" y="670" />
            </Array>
          </mxGeometry>
        </mxCell>
        <mxCell id="_R9ojxDaMG_nAXajCXDd-16" value="min = y2" style="rounded=0;whiteSpace=wrap;html=1;" vertex="1" parent="WIyWlLk6GJQsqaUBKTNV-1">
          <mxGeometry x="70" y="600" width="106" height="50" as="geometry" />
        </mxCell>
        <mxCell id="_R9ojxDaMG_nAXajCXDd-61" style="edgeStyle=orthogonalEdgeStyle;rounded=0;orthogonalLoop=1;jettySize=auto;html=1;" edge="1" parent="WIyWlLk6GJQsqaUBKTNV-1" source="_R9ojxDaMG_nAXajCXDd-17">
          <mxGeometry relative="1" as="geometry">
            <mxPoint x="333" y="670" as="targetPoint" />
          </mxGeometry>
        </mxCell>
        <mxCell id="_R9ojxDaMG_nAXajCXDd-17" value="min = y1" style="rounded=0;whiteSpace=wrap;html=1;" vertex="1" parent="WIyWlLk6GJQsqaUBKTNV-1">
          <mxGeometry x="280" y="600" width="106" height="50" as="geometry" />
        </mxCell>
        <mxCell id="_R9ojxDaMG_nAXajCXDd-62" style="edgeStyle=orthogonalEdgeStyle;rounded=0;orthogonalLoop=1;jettySize=auto;html=1;" edge="1" parent="WIyWlLk6GJQsqaUBKTNV-1" source="_R9ojxDaMG_nAXajCXDd-18">
          <mxGeometry relative="1" as="geometry">
            <mxPoint x="467" y="670" as="targetPoint" />
          </mxGeometry>
        </mxCell>
        <mxCell id="_R9ojxDaMG_nAXajCXDd-18" value="min = y2" style="rounded=0;whiteSpace=wrap;html=1;" vertex="1" parent="WIyWlLk6GJQsqaUBKTNV-1">
          <mxGeometry x="414" y="600" width="106" height="50" as="geometry" />
        </mxCell>
        <mxCell id="_R9ojxDaMG_nAXajCXDd-64" style="edgeStyle=orthogonalEdgeStyle;rounded=0;orthogonalLoop=1;jettySize=auto;html=1;" edge="1" parent="WIyWlLk6GJQsqaUBKTNV-1" source="_R9ojxDaMG_nAXajCXDd-19">
          <mxGeometry relative="1" as="geometry">
            <mxPoint x="400" y="710" as="targetPoint" />
            <Array as="points">
              <mxPoint x="673" y="670" />
              <mxPoint x="400" y="670" />
            </Array>
          </mxGeometry>
        </mxCell>
        <mxCell id="_R9ojxDaMG_nAXajCXDd-19" value="min = x1" style="rounded=0;whiteSpace=wrap;html=1;" vertex="1" parent="WIyWlLk6GJQsqaUBKTNV-1">
          <mxGeometry x="620" y="600" width="106" height="50" as="geometry" />
        </mxCell>
        <mxCell id="_R9ojxDaMG_nAXajCXDd-21" style="edgeStyle=orthogonalEdgeStyle;rounded=0;orthogonalLoop=1;jettySize=auto;html=1;entryX=0.445;entryY=0.038;entryDx=0;entryDy=0;entryPerimeter=0;" edge="1" parent="WIyWlLk6GJQsqaUBKTNV-1">
          <mxGeometry relative="1" as="geometry">
            <mxPoint x="494" y="550" as="sourcePoint" />
            <mxPoint x="469.16999999999996" y="601.8999999999996" as="targetPoint" />
            <Array as="points">
              <mxPoint x="469" y="550" />
            </Array>
          </mxGeometry>
        </mxCell>
        <mxCell id="_R9ojxDaMG_nAXajCXDd-68" value="нет" style="edgeLabel;html=1;align=center;verticalAlign=middle;resizable=0;points=[];" vertex="1" connectable="0" parent="_R9ojxDaMG_nAXajCXDd-21">
          <mxGeometry x="0.2928" relative="1" as="geometry">
            <mxPoint as="offset" />
          </mxGeometry>
        </mxCell>
        <mxCell id="_R9ojxDaMG_nAXajCXDd-26" style="edgeStyle=orthogonalEdgeStyle;rounded=0;orthogonalLoop=1;jettySize=auto;html=1;entryX=0.5;entryY=0;entryDx=0;entryDy=0;entryPerimeter=0;" edge="1" parent="WIyWlLk6GJQsqaUBKTNV-1" source="_R9ojxDaMG_nAXajCXDd-28" target="_R9ojxDaMG_nAXajCXDd-31">
          <mxGeometry relative="1" as="geometry">
            <mxPoint x="240" y="1080" as="targetPoint" />
            <Array as="points">
              <mxPoint x="230" y="1010" />
            </Array>
          </mxGeometry>
        </mxCell>
        <mxCell id="_R9ojxDaMG_nAXajCXDd-27" value="нет" style="edgeLabel;html=1;align=center;verticalAlign=middle;resizable=0;points=[];" vertex="1" connectable="0" parent="_R9ojxDaMG_nAXajCXDd-26">
          <mxGeometry x="-0.4537" y="-1" relative="1" as="geometry">
            <mxPoint as="offset" />
          </mxGeometry>
        </mxCell>
        <mxCell id="_R9ojxDaMG_nAXajCXDd-28" value="z1 &amp;gt; z2" style="strokeWidth=2;html=1;shape=mxgraph.flowchart.decision;whiteSpace=wrap;" vertex="1" parent="WIyWlLk6GJQsqaUBKTNV-1">
          <mxGeometry x="320" y="980" width="160" height="60" as="geometry" />
        </mxCell>
        <mxCell id="_R9ojxDaMG_nAXajCXDd-29" style="edgeStyle=orthogonalEdgeStyle;rounded=0;orthogonalLoop=1;jettySize=auto;html=1;entryX=0.5;entryY=0;entryDx=0;entryDy=0;" edge="1" parent="WIyWlLk6GJQsqaUBKTNV-1" source="_R9ojxDaMG_nAXajCXDd-31" target="_R9ojxDaMG_nAXajCXDd-37">
          <mxGeometry relative="1" as="geometry">
            <Array as="points">
              <mxPoint x="333" y="1110" />
            </Array>
          </mxGeometry>
        </mxCell>
        <mxCell id="_R9ojxDaMG_nAXajCXDd-74" value="да" style="edgeLabel;html=1;align=center;verticalAlign=middle;resizable=0;points=[];" vertex="1" connectable="0" parent="_R9ojxDaMG_nAXajCXDd-29">
          <mxGeometry x="0.2854" y="-1" relative="1" as="geometry">
            <mxPoint x="1" as="offset" />
          </mxGeometry>
        </mxCell>
        <mxCell id="_R9ojxDaMG_nAXajCXDd-30" style="edgeStyle=orthogonalEdgeStyle;rounded=0;orthogonalLoop=1;jettySize=auto;html=1;entryX=0.472;entryY=0;entryDx=0;entryDy=0;entryPerimeter=0;" edge="1" parent="WIyWlLk6GJQsqaUBKTNV-1" source="_R9ojxDaMG_nAXajCXDd-31">
          <mxGeometry relative="1" as="geometry">
            <mxPoint x="120.03199999999993" y="1160" as="targetPoint" />
            <Array as="points">
              <mxPoint x="120" y="1110" />
            </Array>
          </mxGeometry>
        </mxCell>
        <mxCell id="_R9ojxDaMG_nAXajCXDd-73" value="нет" style="edgeLabel;html=1;align=center;verticalAlign=middle;resizable=0;points=[];" vertex="1" connectable="0" parent="_R9ojxDaMG_nAXajCXDd-30">
          <mxGeometry x="0.3479" relative="1" as="geometry">
            <mxPoint as="offset" />
          </mxGeometry>
        </mxCell>
        <mxCell id="_R9ojxDaMG_nAXajCXDd-31" value="z2 &amp;gt; z3" style="strokeWidth=2;html=1;shape=mxgraph.flowchart.decision;whiteSpace=wrap;" vertex="1" parent="WIyWlLk6GJQsqaUBKTNV-1">
          <mxGeometry x="150" y="1080" width="160" height="60" as="geometry" />
        </mxCell>
        <mxCell id="_R9ojxDaMG_nAXajCXDd-32" style="edgeStyle=orthogonalEdgeStyle;rounded=0;orthogonalLoop=1;jettySize=auto;html=1;entryX=0.5;entryY=0;entryDx=0;entryDy=0;entryPerimeter=0;" edge="1" parent="WIyWlLk6GJQsqaUBKTNV-1" source="_R9ojxDaMG_nAXajCXDd-28" target="_R9ojxDaMG_nAXajCXDd-35">
          <mxGeometry relative="1" as="geometry">
            <mxPoint x="560" y="1100" as="targetPoint" />
            <Array as="points">
              <mxPoint x="574" y="1010" />
            </Array>
          </mxGeometry>
        </mxCell>
        <mxCell id="_R9ojxDaMG_nAXajCXDd-33" value="да" style="edgeLabel;html=1;align=center;verticalAlign=middle;resizable=0;points=[];" vertex="1" connectable="0" parent="_R9ojxDaMG_nAXajCXDd-32">
          <mxGeometry x="-0.5253" y="-1" relative="1" as="geometry">
            <mxPoint y="-1" as="offset" />
          </mxGeometry>
        </mxCell>
        <mxCell id="_R9ojxDaMG_nAXajCXDd-34" style="edgeStyle=orthogonalEdgeStyle;rounded=0;orthogonalLoop=1;jettySize=auto;html=1;entryX=0.5;entryY=0;entryDx=0;entryDy=0;" edge="1" parent="WIyWlLk6GJQsqaUBKTNV-1" target="_R9ojxDaMG_nAXajCXDd-39">
          <mxGeometry relative="1" as="geometry">
            <mxPoint x="654" y="1110" as="sourcePoint" />
            <mxPoint x="747" y="1130" as="targetPoint" />
            <Array as="points">
              <mxPoint x="673" y="1110" />
            </Array>
          </mxGeometry>
        </mxCell>
        <mxCell id="_R9ojxDaMG_nAXajCXDd-76" value="да" style="edgeLabel;html=1;align=center;verticalAlign=middle;resizable=0;points=[];" vertex="1" connectable="0" parent="_R9ojxDaMG_nAXajCXDd-34">
          <mxGeometry x="0.244" y="1" relative="1" as="geometry">
            <mxPoint as="offset" />
          </mxGeometry>
        </mxCell>
        <mxCell id="_R9ojxDaMG_nAXajCXDd-35" value="z1 &amp;gt; z3" style="strokeWidth=2;html=1;shape=mxgraph.flowchart.decision;whiteSpace=wrap;" vertex="1" parent="WIyWlLk6GJQsqaUBKTNV-1">
          <mxGeometry x="494" y="1080" width="160" height="60" as="geometry" />
        </mxCell>
        <mxCell id="_R9ojxDaMG_nAXajCXDd-80" style="edgeStyle=orthogonalEdgeStyle;rounded=0;orthogonalLoop=1;jettySize=auto;html=1;" edge="1" parent="WIyWlLk6GJQsqaUBKTNV-1" source="_R9ojxDaMG_nAXajCXDd-36" target="_R9ojxDaMG_nAXajCXDd-79">
          <mxGeometry relative="1" as="geometry">
            <Array as="points">
              <mxPoint x="125" y="1240" />
              <mxPoint x="403" y="1240" />
            </Array>
          </mxGeometry>
        </mxCell>
        <mxCell id="_R9ojxDaMG_nAXajCXDd-36" value="max = z3&amp;nbsp;" style="rounded=0;whiteSpace=wrap;html=1;" vertex="1" parent="WIyWlLk6GJQsqaUBKTNV-1">
          <mxGeometry x="72" y="1160" width="106" height="50" as="geometry" />
        </mxCell>
        <mxCell id="_R9ojxDaMG_nAXajCXDd-82" style="edgeStyle=orthogonalEdgeStyle;rounded=0;orthogonalLoop=1;jettySize=auto;html=1;" edge="1" parent="WIyWlLk6GJQsqaUBKTNV-1" source="_R9ojxDaMG_nAXajCXDd-37">
          <mxGeometry relative="1" as="geometry">
            <mxPoint x="333" y="1240" as="targetPoint" />
          </mxGeometry>
        </mxCell>
        <mxCell id="_R9ojxDaMG_nAXajCXDd-37" value="max = z2" style="rounded=0;whiteSpace=wrap;html=1;" vertex="1" parent="WIyWlLk6GJQsqaUBKTNV-1">
          <mxGeometry x="280" y="1160" width="106" height="50" as="geometry" />
        </mxCell>
        <mxCell id="_R9ojxDaMG_nAXajCXDd-83" style="edgeStyle=orthogonalEdgeStyle;rounded=0;orthogonalLoop=1;jettySize=auto;html=1;" edge="1" parent="WIyWlLk6GJQsqaUBKTNV-1" source="_R9ojxDaMG_nAXajCXDd-38">
          <mxGeometry relative="1" as="geometry">
            <mxPoint x="467" y="1240" as="targetPoint" />
          </mxGeometry>
        </mxCell>
        <mxCell id="_R9ojxDaMG_nAXajCXDd-38" value="max = z3" style="rounded=0;whiteSpace=wrap;html=1;" vertex="1" parent="WIyWlLk6GJQsqaUBKTNV-1">
          <mxGeometry x="414" y="1160" width="106" height="50" as="geometry" />
        </mxCell>
        <mxCell id="_R9ojxDaMG_nAXajCXDd-81" style="edgeStyle=orthogonalEdgeStyle;rounded=0;orthogonalLoop=1;jettySize=auto;html=1;entryX=0.5;entryY=0;entryDx=0;entryDy=0;" edge="1" parent="WIyWlLk6GJQsqaUBKTNV-1" source="_R9ojxDaMG_nAXajCXDd-39" target="_R9ojxDaMG_nAXajCXDd-79">
          <mxGeometry relative="1" as="geometry">
            <Array as="points">
              <mxPoint x="673" y="1240" />
              <mxPoint x="403" y="1240" />
            </Array>
          </mxGeometry>
        </mxCell>
        <mxCell id="_R9ojxDaMG_nAXajCXDd-39" value="maz = z1" style="rounded=0;whiteSpace=wrap;html=1;" vertex="1" parent="WIyWlLk6GJQsqaUBKTNV-1">
          <mxGeometry x="620" y="1160" width="106" height="50" as="geometry" />
        </mxCell>
        <mxCell id="_R9ojxDaMG_nAXajCXDd-40" style="edgeStyle=orthogonalEdgeStyle;rounded=0;orthogonalLoop=1;jettySize=auto;html=1;entryX=0.445;entryY=0.038;entryDx=0;entryDy=0;entryPerimeter=0;" edge="1" parent="WIyWlLk6GJQsqaUBKTNV-1">
          <mxGeometry relative="1" as="geometry">
            <mxPoint x="494" y="1110" as="sourcePoint" />
            <mxPoint x="469.16999999999996" y="1161.8999999999996" as="targetPoint" />
            <Array as="points">
              <mxPoint x="469" y="1110" />
            </Array>
          </mxGeometry>
        </mxCell>
        <mxCell id="_R9ojxDaMG_nAXajCXDd-75" value="нет" style="edgeLabel;html=1;align=center;verticalAlign=middle;resizable=0;points=[];" vertex="1" connectable="0" parent="_R9ojxDaMG_nAXajCXDd-40">
          <mxGeometry x="0.2706" relative="1" as="geometry">
            <mxPoint as="offset" />
          </mxGeometry>
        </mxCell>
        <mxCell id="_R9ojxDaMG_nAXajCXDd-71" value="" style="edgeStyle=orthogonalEdgeStyle;rounded=0;orthogonalLoop=1;jettySize=auto;html=1;" edge="1" parent="WIyWlLk6GJQsqaUBKTNV-1" source="_R9ojxDaMG_nAXajCXDd-57" target="_R9ojxDaMG_nAXajCXDd-59">
          <mxGeometry relative="1" as="geometry" />
        </mxCell>
        <mxCell id="_R9ojxDaMG_nAXajCXDd-57" value="&lt;div style=&quot;text-align: left;&quot;&gt;&lt;span style=&quot;background-color: initial;&quot;&gt;z2 = x1&lt;/span&gt;&lt;font face=&quot;Google Sans, Arial, sans-serif&quot; color=&quot;#040c28&quot;&gt;&lt;span style=&quot;font-size: 11px; background-color: rgb(255, 255, 255);&quot;&gt;&amp;nbsp;* y1&lt;/span&gt;&lt;/font&gt;&lt;/div&gt;" style="rounded=0;whiteSpace=wrap;html=1;" vertex="1" parent="WIyWlLk6GJQsqaUBKTNV-1">
          <mxGeometry x="347" y="800" width="106" height="50" as="geometry" />
        </mxCell>
        <mxCell id="_R9ojxDaMG_nAXajCXDd-70" value="" style="edgeStyle=orthogonalEdgeStyle;rounded=0;orthogonalLoop=1;jettySize=auto;html=1;" edge="1" parent="WIyWlLk6GJQsqaUBKTNV-1" source="_R9ojxDaMG_nAXajCXDd-58" target="_R9ojxDaMG_nAXajCXDd-57">
          <mxGeometry relative="1" as="geometry" />
        </mxCell>
        <mxCell id="_R9ojxDaMG_nAXajCXDd-58" value="z1 = x1 + y1" style="rounded=0;whiteSpace=wrap;html=1;" vertex="1" parent="WIyWlLk6GJQsqaUBKTNV-1">
          <mxGeometry x="347" y="710" width="106" height="50" as="geometry" />
        </mxCell>
        <mxCell id="_R9ojxDaMG_nAXajCXDd-72" value="" style="edgeStyle=orthogonalEdgeStyle;rounded=0;orthogonalLoop=1;jettySize=auto;html=1;" edge="1" parent="WIyWlLk6GJQsqaUBKTNV-1" source="_R9ojxDaMG_nAXajCXDd-59" target="_R9ojxDaMG_nAXajCXDd-28">
          <mxGeometry relative="1" as="geometry" />
        </mxCell>
        <mxCell id="_R9ojxDaMG_nAXajCXDd-59" value="z3 = y1 * y2" style="rounded=0;whiteSpace=wrap;html=1;" vertex="1" parent="WIyWlLk6GJQsqaUBKTNV-1">
          <mxGeometry x="347" y="890" width="106" height="50" as="geometry" />
        </mxCell>
        <mxCell id="_R9ojxDaMG_nAXajCXDd-85" value="" style="edgeStyle=orthogonalEdgeStyle;rounded=0;orthogonalLoop=1;jettySize=auto;html=1;" edge="1" parent="WIyWlLk6GJQsqaUBKTNV-1" source="_R9ojxDaMG_nAXajCXDd-79" target="_R9ojxDaMG_nAXajCXDd-84">
          <mxGeometry relative="1" as="geometry" />
        </mxCell>
        <mxCell id="_R9ojxDaMG_nAXajCXDd-79" value="rezult = maz + min" style="rounded=0;whiteSpace=wrap;html=1;" vertex="1" parent="WIyWlLk6GJQsqaUBKTNV-1">
          <mxGeometry x="350" y="1260" width="106" height="50" as="geometry" />
        </mxCell>
        <mxCell id="_R9ojxDaMG_nAXajCXDd-87" value="" style="edgeStyle=orthogonalEdgeStyle;rounded=0;orthogonalLoop=1;jettySize=auto;html=1;" edge="1" parent="WIyWlLk6GJQsqaUBKTNV-1" source="_R9ojxDaMG_nAXajCXDd-84" target="_R9ojxDaMG_nAXajCXDd-86">
          <mxGeometry relative="1" as="geometry" />
        </mxCell>
        <mxCell id="_R9ojxDaMG_nAXajCXDd-84" value="вывод rezult" style="shape=parallelogram;html=1;strokeWidth=2;perimeter=parallelogramPerimeter;whiteSpace=wrap;rounded=1;arcSize=12;size=0.23;" vertex="1" parent="WIyWlLk6GJQsqaUBKTNV-1">
          <mxGeometry x="323" y="1340" width="160" height="60" as="geometry" />
        </mxCell>
        <mxCell id="_R9ojxDaMG_nAXajCXDd-86" value="конец" style="strokeWidth=2;html=1;shape=mxgraph.flowchart.start_2;whiteSpace=wrap;" vertex="1" parent="WIyWlLk6GJQsqaUBKTNV-1">
          <mxGeometry x="323" y="1440" width="160" height="80" as="geometry" />
        </mxCell>
      </root>
    </mxGraphModel>
  </diagram>
</mxfile>
